<svg width="328" height="114" viewBox="0 0 328 114" fill="none" xmlns="http://www.w3.org/2000/svg">
<path fill-rule="evenodd" clip-rule="evenodd" d="M39.5767 16L54.1704 30.7087L57.5387 34.1035L63.1514 39.7619V73.7036L39.5767 97.4655L24.983 82.7569L21.6133 79.3606L16.002 73.7036V39.7619L39.5767 16ZM36.207 64.6534L31.718 60.1275L28.3498 56.7328L39.5767 45.4174L50.9949 33.9077L39.5767 22.3996L20.491 41.6356V71.8299L24.7903 76.1616L36.207 64.6534ZM58.6609 71.8299V41.6356L54.3631 37.304L42.9449 48.8121L47.4354 53.338L50.8022 56.7328L39.5767 68.0482L28.157 79.5578L39.5767 91.066L58.6609 71.8299Z" fill="black"/>
<path fill-rule="evenodd" clip-rule="evenodd" d="M82.1947 71.1361C80.6767 69.5747 79.9176 67.5336 79.9176 65.0099V63.7339C79.9176 63.4186 80.0748 63.2603 80.3876 63.2603H83.8611C84.1724 63.2603 84.3295 63.4186 84.3295 63.7339V64.7739C84.3295 66.2247 84.6898 67.3827 85.4088 68.2508C86.1293 69.1174 87.0514 69.5508 88.1796 69.5508C89.3048 69.5508 90.2358 69.1339 90.9711 68.2986C91.7064 67.4634 92.0741 66.3667 92.0741 65.0099C92.0741 64.0955 91.8784 63.2916 91.4885 62.5983C91.0956 61.9036 90.5797 61.2805 89.9393 60.7291C89.2974 60.1778 88.2567 59.3649 86.8172 58.2921C85.222 57.0953 83.9693 56.0703 83.062 55.2186C82.1547 54.3669 81.3883 53.3434 80.7626 52.1436C80.137 50.9453 79.8242 49.5422 79.8242 47.9345C79.8242 45.3794 80.5758 43.3533 82.0776 41.8547C83.5794 40.3575 85.5333 39.6074 87.9439 39.6074C90.4463 39.6074 92.4566 40.4128 93.9747 42.0205C95.4927 43.6298 96.2518 45.7425 96.2518 48.3603V49.5422C96.2518 49.8575 96.0946 50.0144 95.7818 50.0144H92.3083C91.9955 50.0144 91.8399 49.8575 91.8399 49.5422V48.2647C91.8399 46.8452 91.4796 45.7037 90.7606 44.8341C90.0401 43.9675 89.1017 43.5341 87.9439 43.5341C86.8483 43.5341 85.9647 43.9211 85.2917 44.6936C84.6186 45.4661 84.2836 46.5464 84.2836 47.9345C84.2836 49.1941 84.6275 50.2594 85.3154 51.1261C86.0033 51.9942 87.3182 53.1537 89.2588 54.6045C91.1668 56.0225 92.5974 57.173 93.5521 58.056C94.5069 58.9406 95.2422 59.9088 95.7581 60.9652C96.2755 62.0216 96.5334 63.2767 96.5334 64.7261C96.5334 67.3752 95.7581 69.497 94.2089 71.0898C92.6612 72.6811 90.6509 73.4774 88.1796 73.4774C85.7068 73.4774 83.7113 72.6975 82.1947 71.1361Z" fill="black"/>
<path fill-rule="evenodd" clip-rule="evenodd" d="M105.779 72.6259V40.4608C105.779 40.1455 105.935 39.9856 106.248 39.9856H109.816C110.129 39.9856 110.286 40.1455 110.286 40.4608V54.651C110.286 54.7451 110.316 54.8004 110.379 54.8168C110.442 54.8333 110.488 54.7914 110.52 54.6988L118.499 40.3173C118.655 40.0962 118.843 39.9856 119.061 39.9856H122.911C123.098 39.9856 123.222 40.0409 123.286 40.153C123.348 40.2635 123.332 40.3965 123.239 40.5534L116.011 53.7052C115.979 53.7993 115.979 53.8934 116.011 53.9876L123.849 72.5318L123.895 72.72C123.895 72.9726 123.755 73.0996 123.474 73.0996H119.578C119.328 73.0996 119.156 72.9726 119.061 72.72L112.961 57.9621C112.929 57.8052 112.851 57.7887 112.726 57.9142L110.332 61.7468C110.301 61.7782 110.286 61.8574 110.286 61.9829V72.6259C110.286 72.9427 110.129 73.0996 109.816 73.0996H106.248C105.935 73.0996 105.779 72.9427 105.779 72.6259Z" fill="black"/>
<path fill-rule="evenodd" clip-rule="evenodd" d="M137.553 72.5793V59.0496L137.507 58.8135L130.983 40.5068L130.936 40.3171C130.936 40.0974 131.076 39.9868 131.358 39.9868H135.113C135.395 39.9868 135.582 40.1123 135.677 40.3649L139.666 53.421C139.697 53.4852 139.745 53.5151 139.807 53.5151C139.869 53.5151 139.917 53.4852 139.948 53.421L143.937 40.3649C144.03 40.1123 144.219 39.9868 144.5 39.9868H148.254C148.6 39.9868 148.724 40.1602 148.631 40.5068L142.106 58.8135L142.06 59.0496V72.5793C142.06 72.8946 141.903 73.0515 141.59 73.0515H138.023C137.709 73.0515 137.553 72.8946 137.553 72.5793Z" fill="black"/>
<path fill-rule="evenodd" clip-rule="evenodd" d="M162.335 72.6742L156.092 40.5076V40.4119C156.092 40.1295 156.233 39.9861 156.514 39.9861H160.222C160.535 39.9861 160.707 40.1295 160.738 40.4119L164.541 62.599C164.572 62.6617 164.603 62.6916 164.634 62.6916C164.665 62.6916 164.696 62.6617 164.729 62.599L168.107 40.4119C168.139 40.1295 168.296 39.9861 168.576 39.9861H171.722C172.002 39.9861 172.159 40.1295 172.19 40.4119L175.805 62.599C175.836 62.6617 175.867 62.6916 175.898 62.6916C175.929 62.6916 175.96 62.6617 175.993 62.599L179.466 40.4119C179.529 40.1295 179.684 39.9861 179.935 39.9861H183.595C183.752 39.9861 183.869 40.0339 183.948 40.1295C184.025 40.2222 184.049 40.3492 184.018 40.5076L178.104 72.6742C178.073 72.9566 177.901 73.1 177.588 73.1H174.257C174.005 73.1 173.849 72.9566 173.787 72.6742L170.22 50.2989C170.187 50.2361 170.149 50.2048 170.103 50.2048C170.055 50.2048 170.032 50.2361 170.032 50.2989L166.653 72.6742C166.62 72.9566 166.465 73.1 166.183 73.1H162.851C162.569 73.1 162.397 72.9566 162.335 72.6742Z" fill="black"/>
<path fill-rule="evenodd" clip-rule="evenodd" d="M208.048 43.9128H197.487C197.362 43.9128 197.3 43.977 197.3 44.1025V54.3675C197.3 54.493 197.362 54.5558 197.487 54.5558H203.965C204.276 54.5558 204.434 54.7142 204.434 55.0295V58.0103C204.434 58.3256 204.276 58.4825 203.965 58.4825H197.487C197.362 58.4825 197.3 58.5467 197.3 58.6723V68.9836C197.3 69.1106 197.362 69.1733 197.487 69.1733H208.048C208.359 69.1733 208.516 69.3317 208.516 69.647V72.6264C208.516 72.9431 208.359 73.1 208.048 73.1H193.263C192.95 73.1 192.793 72.9431 192.793 72.6264V40.4597C192.793 40.146 192.95 39.9861 193.263 39.9861H208.048C208.359 39.9861 208.516 40.146 208.516 40.4597V43.4406C208.516 43.7559 208.359 43.9128 208.048 43.9128Z" fill="black"/>
<path fill-rule="evenodd" clip-rule="evenodd" d="M223.816 63.4494H230.012C230.105 63.4494 230.153 63.3866 230.153 63.2596L227.056 47.0822C227.023 46.9865 226.992 46.9402 226.961 46.9402C226.93 46.9402 226.899 46.9865 226.867 47.0822L223.676 63.2596C223.676 63.3866 223.723 63.4494 223.816 63.4494ZM231.936 72.6744L230.904 67.2341C230.904 67.1714 230.881 67.1236 230.833 67.0922C230.787 67.0608 230.732 67.0444 230.67 67.0444H223.112C223.05 67.0444 222.995 67.0608 222.949 67.0922C222.902 67.1236 222.878 67.1714 222.878 67.2341L221.799 72.6744C221.768 72.9568 221.594 73.1003 221.283 73.1003H217.715C217.557 73.1003 217.44 73.0525 217.363 72.9568C217.285 72.8627 217.261 72.7372 217.293 72.5788L224.286 40.4122C224.349 40.1298 224.521 39.9863 224.802 39.9863H228.933C229.245 39.9863 229.417 40.1298 229.449 40.4122L236.536 72.5788V72.6744C236.536 72.9568 236.395 73.1003 236.114 73.1003H232.452C232.17 73.1003 231.998 72.9568 231.936 72.6744Z" fill="black"/>
<path fill-rule="evenodd" clip-rule="evenodd" d="M247.849 72.6742L241.09 40.5076V40.4119C241.09 40.1295 241.231 39.9861 241.512 39.9861H245.408C245.72 39.9861 245.893 40.1295 245.924 40.4119L250.382 64.9642C250.413 65.027 250.444 65.0569 250.477 65.0569C250.507 65.0569 250.539 65.027 250.57 64.9642L254.935 40.4119C254.999 40.1295 255.169 39.9861 255.452 39.9861H259.207C259.551 39.9861 259.691 40.1594 259.629 40.5076L252.87 72.6742C252.839 72.9566 252.667 73.1 252.354 73.1H248.364C248.083 73.1 247.911 72.9566 247.849 72.6742Z" fill="black"/>
<path fill-rule="evenodd" clip-rule="evenodd" d="M283.939 43.9128H273.379C273.253 43.9128 273.191 43.977 273.191 44.1025V54.3675C273.191 54.493 273.253 54.5558 273.379 54.5558H279.856C280.169 54.5558 280.325 54.7142 280.325 55.0295V58.0103C280.325 58.3256 280.169 58.4825 279.856 58.4825H273.379C273.253 58.4825 273.191 58.5467 273.191 58.6723V68.9836C273.191 69.1106 273.253 69.1733 273.379 69.1733H283.939C284.252 69.1733 284.409 69.3317 284.409 69.647V72.6264C284.409 72.9431 284.252 73.1 283.939 73.1H269.154C268.841 73.1 268.686 72.9431 268.686 72.6264V40.4597C268.686 40.146 268.841 39.9861 269.154 39.9861H283.939C284.252 39.9861 284.409 40.146 284.409 40.4597V43.4406C284.409 43.7559 284.252 43.9128 283.939 43.9128Z" fill="black"/>
<path fill-rule="evenodd" clip-rule="evenodd" d="M298.16 44.0542V54.6509C298.16 54.7779 298.222 54.8406 298.348 54.8406H301.821C303.104 54.8406 304.136 54.3431 304.918 53.3509C305.7 52.3573 306.092 51.0409 306.092 49.4003C306.092 47.697 305.7 46.3492 304.918 45.3556C304.136 44.362 303.104 43.8659 301.821 43.8659H298.348C298.222 43.8659 298.16 43.9287 298.16 44.0542ZM306.138 72.7214L301.774 58.5298C301.743 58.4356 301.681 58.3878 301.587 58.3878H298.348C298.222 58.3878 298.16 58.4521 298.16 58.5776V72.6258C298.16 72.9426 298.004 73.0995 297.691 73.0995H294.124C293.81 73.0995 293.654 72.9426 293.654 72.6258V40.4114C293.654 40.0976 293.81 39.9392 294.124 39.9392H302.524C304.121 39.9392 305.529 40.3337 306.749 41.1211C307.969 41.91 308.915 43.0232 309.588 44.4576C310.261 45.892 310.598 47.5237 310.598 49.3525C310.598 51.3398 310.183 53.0656 309.354 54.5328C308.525 55.9986 307.406 57.0475 305.998 57.6781C305.904 57.7737 305.873 57.8678 305.904 57.962L310.739 72.5795L310.786 72.7693C310.786 72.9889 310.644 73.0995 310.362 73.0995H306.702C306.42 73.0995 306.233 72.9725 306.138 72.7214Z" fill="black"/>
</svg>
