<?xml version="1.0" encoding="UTF-8" standalone="no"?>
<svg
   width="22"
   height="17"
   viewBox="0 0 22 17"
   fill="none"
   version="1.1"
   id="svg2053"
   xmlns="http://www.w3.org/2000/svg"
   xmlns:svg="http://www.w3.org/2000/svg">
  <defs
     id="defs2057" />
  <path
     d="M6.92098 17C15.2208 17 19.7618 10.4589 19.7618 4.78824C19.7618 4.60435 19.7575 4.41638 19.7489 4.23249C20.6322 3.62496 21.3945 2.87245 22 2.01031C21.1773 2.35841 20.3038 2.58575 19.4094 2.68457C20.3512 2.14771 21.0563 1.30434 21.3941 0.310783C20.5082 0.81012 19.5393 1.16236 18.529 1.3524C17.8483 0.664539 16.9482 0.209091 15.968 0.0564758C14.9879 -0.0961397 13.9821 0.0625776 13.1063 0.508089C12.2304 0.953599 11.5333 1.66109 11.1227 2.52118C10.7121 3.38126 10.6108 4.34604 10.8346 5.26635C9.04062 5.18073 7.28561 4.73754 5.68332 3.9655C4.08102 3.19346 2.66722 2.10981 1.53355 0.784804C0.957366 1.72956 0.781052 2.84751 1.04044 3.91145C1.29984 4.97538 1.97547 5.90548 2.93004 6.51269C2.21341 6.49106 1.51248 6.30756 0.885156 5.97738V6.0305C0.884514 7.02195 1.24492 7.98301 1.90512 8.75032C2.56531 9.51763 3.48455 10.0438 4.50656 10.2395C3.84272 10.4122 3.14598 10.4374 2.47027 10.313C2.75867 11.1657 3.31978 11.9114 4.07529 12.4462C4.8308 12.981 5.74303 13.2781 6.68465 13.2961C5.08606 14.4903 3.11133 15.138 1.07852 15.135C0.718013 15.1344 0.357866 15.1134 0 15.072C2.06512 16.332 4.4674 17.0012 6.92098 17Z"
     fill="#ffffff"
     id="path2051"
     style="fill:#ffffff;fill-opacity:0.8" />
</svg>
