<svg width="305.0671" height="247.9995" xmlns="http://www.w3.org/2000/svg">

 <g>
  <title>Layer 1</title>
  <path
    style="fill:#ffffff;fill-opacity:0.8"
    stroke="null"
    id="svg_1"
    fill="#fff" d="m122.42627,164.79665l0,-81.59263l76.94007,40.79748l-76.94007,40.79514l0,0.00001zm171.14379,-107.26629c-3.38575,-11.88158 -13.36108,-21.23882 -26.02595,-24.41442c-22.95632,-5.77126 -115.01118,-5.77126 -115.01118,-5.77126s-92.05361,0 -115.00993,5.77126c-12.66486,3.17559 -22.64021,12.53284 -26.02595,24.41442c-6.15179,21.53581 -6.15179,66.46998 -6.15179,66.46998s0,44.93183 6.15179,66.46881c3.38575,11.88275 13.35983,21.23882 26.02595,24.41675c22.95632,5.76892 115.00993,5.76892 115.00993,5.76892s92.05486,0 115.01118,-5.76892c12.66486,-3.17793 22.64021,-12.53401 26.02595,-24.41675c6.15179,-21.53698 6.15179,-66.46998 6.15179,-66.46998s0,-44.933 -6.15179,-66.46881"/>
 </g>
</svg>