<?xml version="1.0" encoding="UTF-8" standalone="no"?>
<svg
   width="22"
   height="16"
   viewBox="0 0 22 16"
   fill="none"
   version="1.1"
   id="svg1497"
   xmlns="http://www.w3.org/2000/svg"
   xmlns:svg="http://www.w3.org/2000/svg">
  <defs
     id="defs1501" />
  <path
     d="M18.6239 1.32631C17.2217 0.71242 15.7181 0.260131 14.1459 0.00108666C14.1173 -0.00391282 14.0887 0.00858115 14.0739 0.0335697C13.8805 0.361747 13.6663 0.789881 13.5163 1.12639C11.8254 0.884845 10.1431 0.884845 8.48679 1.12639C8.33676 0.782401 8.11478 0.361747 7.92053 0.0335697C7.90578 0.00941489 7.87718 -0.00307908 7.84855 0.00108666C6.27725 0.259303 4.7736 0.711592 3.37052 1.32631C3.35838 1.33131 3.34797 1.33965 3.34106 1.35047C0.488942 5.4161 -0.292371 9.3818 0.0909151 13.2983C0.0926494 13.3175 0.103922 13.3358 0.119532 13.3475C2.00127 14.666 3.82406 15.4665 5.61301 15.9971C5.64164 16.0054 5.67197 15.9954 5.69019 15.9729C6.11337 15.4215 6.49059 14.8401 6.81402 14.2287C6.83311 14.1929 6.81489 14.1504 6.77588 14.1363C6.17754 13.9197 5.6078 13.6557 5.05975 13.3558C5.0164 13.3317 5.01293 13.2725 5.05281 13.2442C5.16814 13.1617 5.2835 13.0759 5.39363 12.9893C5.41355 12.9735 5.44131 12.9701 5.46474 12.9801C9.06518 14.5486 12.9631 14.5486 16.521 12.9801C16.5445 12.9693 16.5722 12.9726 16.593 12.9885C16.7032 13.0751 16.8185 13.1617 16.9347 13.2442C16.9746 13.2725 16.972 13.3317 16.9286 13.3558C16.3806 13.6615 15.8108 13.9197 15.2116 14.1354C15.1726 14.1496 15.1553 14.1929 15.1744 14.2287C15.5047 14.8393 15.882 15.4207 16.2973 15.9721C16.3147 15.9954 16.3459 16.0054 16.3745 15.9971C18.1721 15.4665 19.9949 14.666 21.8766 13.3475C21.8931 13.3358 21.9035 13.3183 21.9053 13.2992C22.364 8.77122 21.1369 4.83804 18.6525 1.3513C18.6465 1.33965 18.6361 1.33131 18.6239 1.32631ZM7.35169 10.9136C6.26771 10.9136 5.37454 9.96403 5.37454 8.79789C5.37454 7.63175 6.25039 6.6822 7.35169 6.6822C8.46163 6.6822 9.34616 7.64009 9.32881 8.79789C9.32881 9.96403 8.45296 10.9136 7.35169 10.9136ZM14.6619 10.9136C13.5779 10.9136 12.6847 9.96403 12.6847 8.79789C12.6847 7.63175 13.5606 6.6822 14.6619 6.6822C15.7718 6.6822 16.6563 7.64009 16.639 8.79789C16.639 9.96403 15.7718 10.9136 14.6619 10.9136Z"
     fill="#D5D5D5"
     id="path1495"
     style="fill:#ffffff;fill-opacity:0.8" />
</svg>
